<svg xmlns="http://www.w3.org/2000/svg" width="355" height="181">
  <g fill="none" fill-rule="evenodd" transform="translate(0 -10)">
    <circle cx="120.5" cy="100.5" r="90.5" fill="#FFF" fill-rule="nonzero"/>
    <path stroke="#E8E8E8" stroke-linecap="round" stroke-linejoin="round" stroke-width="3" d="M68.8 152.6a71.6 71.6 0 1 0 0-101.3M81 140.4a54.3 54.3 0 1 0 0-76.8M96.4 125a32.6 32.6 0 1 0 0-46"/>
    <path fill="#3B3B3B" d="M25 54.9c-7.2 0-10.8 6.9-10.8 20.7v5.5c0 6.6 1 11.7 2.8 15.5 2 3.7 4.7 5.6 8.4 5.6 5.1 0 9.8-5 14-14.9h1.3l-.5 15.5h-.7l-.8-1c-.2-.3-.6-.4-1-.4l-5 1a37 37 0 0 1-9 1.1 24 24 0 0 1-17.5-6C2.1 93.3 0 87.1 0 79c0-8.2 2.2-14.5 6.5-19A23.3 23.3 0 0 1 24 53.5c2.8 0 5.6.3 8.3 1 2.7.8 4.3 1.1 4.7 1.1.5 0 .8 0 1-.3.3-.2.6-.6.8-1h.8l.6 15h-1.3c-2-4.7-4.2-8.2-6.4-10.7a9.9 9.9 0 0 0-7.6-3.7zm41.7 34.3v-6c0-4.4-.3-7.7-.8-9.8-.5-2-1.6-3-3.3-3-1 0-1.9.2-2.5.8-.6.6-1 1.6-1.4 2.9-.4 2-.6 5.3-.6 9.5V89c0 5 .2 8.1.5 9.1l.9 2.5c.5 1.1 1.5 1.7 3 1.7 1.8 0 3-1 3.5-3.1.4-1.5.7-4.8.7-10zm-4.4 14.3c-5.7 0-10.1-1.4-13-4.4-3-3-4.5-7.2-4.5-12.7 0-5.6 1.6-9.8 4.7-12.8 3.2-3 7.7-4.5 13.4-4.5s10 1.4 12.8 4.1c2.9 2.8 4.3 7 4.3 12.6 0 11.8-5.9 17.7-17.7 17.7zm44.1-19.3c0-4.8-.2-8-.7-9.6-.4-1.7-1.3-2.5-2.7-2.5s-2.5.9-3.6 2.6c-1 1.7-1.6 4-1.6 7v12.7c0 2 .4 3.7 1.2 5 .8 1.4 2 2.1 3.5 2.1s2.5-1 3-3c.6-2 1-5.6 1-10.7v-3.6zm-8.7-14.4v5.5c1.8-4.1 5-6.2 9.6-6.2 4 0 7 1.4 9.2 4.3 2.2 2.9 3.3 7.2 3.3 13 0 5.9-1.2 10.2-3.6 13-2.3 2.8-6 4.1-10.7 4.1-2.2 0-3.9-.2-5-.8-1.1-.5-2-1.4-2.7-2.6v18h9v1.3H81V118h3.8v-47h-3.7v-1.3h16.5zm41.6 33.7c-6 0-10.4-1.5-13.4-4.6-3-3-4.5-7.3-4.5-12.8 0-5.5 1.7-9.7 5-12.6 3.4-3 7.7-4.4 12.8-4.4 10.6 0 15.6 5.3 15.2 15.8h-19.6v2.7c0 4.6.6 8 1.7 10.3 1.2 2.3 3.2 3.5 6 3.5 5.4 0 9-2.9 10.6-8.6l1.3.2c-.9 3.3-2.5 6-4.8 7.8-2.3 1.8-5.7 2.7-10.3 2.7zm-4.4-20h7.1v-3.4c0-3.7-.2-6.3-.6-7.6-.5-1.4-1.4-2-2.7-2s-2.3.6-2.9 2.1c-.6 1.5-1 4-1 7.5v3.4zm44.3-11.8c-1.7 0-3.2 1.1-4.5 3.4-1.3 2.2-2 4.8-2 7.9v18.6h5v1.3H156v-1.3h3.8V71H156v-1.2h16.8v6.7A9.4 9.4 0 0 1 182 69c2.1 0 4 .6 5.3 1.8 1.3 1.3 2 3 2 5.2 0 2.3-.5 4-1.5 5.2-1 1.2-2.6 1.8-4.7 1.8s-3.6-.7-4.6-2c-1-1.4-1.2-3.4-.4-5.8h2.5c1.1-2.4.6-3.6-1.5-3.6zm10.5-2h16.7v6.5c.8-2.1 1.9-3.9 3.4-5.2 1.5-1.3 3.9-1.9 7-1.9 7.1 0 10.7 3.9 10.7 11.6v20.9h4v1.3h-19.7v-1.3h2.8V79a16 16 0 0 0-.5-5.4c-.4-.8-1-1.2-2-1.2-1.5 0-2.9 1-4 3-1.1 1.9-1.7 4.3-1.7 7v19.2h3v1.3h-19.7v-1.3h3.8V71h-3.8v-1.2zm52-4.7c-2.5 0-4.2-.6-5.3-1.9a7 7 0 0 1-1.5-4.6c0-1.9.5-3.4 1.7-4.6 1-1.2 2.8-1.8 5.1-1.8s4.1.5 5.3 1.6c1.2 1.1 1.8 2.7 1.8 4.7s-.6 3.6-1.7 4.8c-1.2 1.2-3 1.8-5.4 1.8zm-10.5 4.8h17v31.8h3.9v1.3h-20.6v-1.3h3.8V71h-4.1v-1.2zm40.9.5c-2 0-3.5 1.2-4.4 3.4-.9 2.2-1.3 5.9-1.3 11v3.6c0 4.6.5 8 1.5 9.9 1 2 2.9 3 5.6 3s5-1 6.5-2.8c1.7-1.8 2.7-4 3.2-6.3l1.2.1a14 14 0 0 1-4.8 8.6 16.2 16.2 0 0 1-10 2.7c-5.4 0-9.5-1.4-12.3-4.3-3-2.9-4.3-7.1-4.3-12.7s1.6-9.9 4.8-12.9c3.3-3 7.9-4.5 13.7-4.5 4.1 0 7.3.8 9.4 2.4a7.2 7.2 0 0 1 3.3 6c0 2.4-.5 4.2-1.6 5.3a5.6 5.6 0 0 1-4.3 1.6c-1.8 0-3.3-.4-4.4-1.4-1-1-1.6-2.4-1.6-4.3 0-.9 0-1.7.3-2.5h2.3c.3-1 .5-1.8.5-2.5 0-2.2-1.1-3.4-3.3-3.4zm53.8 32.5h-15.8l-.8-5a9 9 0 0 1-3.3 4.3c-1.4 1-3.6 1.4-6.5 1.4-7.2 0-10.7-3.8-10.7-11.6V71h-4v-1.2h16.9v23.8c0 2.8.2 4.6.6 5.5.4.9 1.2 1.3 2.3 1.3 1.2 0 2.3-.7 3.2-2.1a11 11 0 0 0 1.4-6V71H306v-1.2H322v31.8h3.8v1.3zm2.1.7V91.1h.9c1.2 4 2.8 6.9 4.8 8.5 2 1.6 4.6 2.4 7.7 2.4 4.7 0 7-1.5 7-4.5 0-1.3-.5-2.3-1.7-3-1.8-1-4-1.7-7-2.3-3-.8-5.7-2-7.8-3.3-2.6-1.7-3.9-4.3-3.9-8 0-3.5 1.2-6.4 3.4-8.6 2.2-2.1 5.2-3.2 8.9-3.2 2.2 0 4.6.5 7 1.6.9.4 1.5.6 2 .6s.9-.2 1.2-.5l1.2-1.8h.7v10.6h-.8c-2.4-6-6-9-11-9-2.2 0-3.8.3-4.8 1.1-1.1.8-1.6 1.7-1.6 2.9 0 .7.1 1.2.4 1.6l.8.9 1 .6a17 17 0 0 0 3.5 1.3c3.2.7 5.4 1.4 6.8 2 1.4.6 2.7 1.3 4 2.1 2.5 1.8 3.8 4.6 3.8 8.5s-1.2 7-3.5 9a14 14 0 0 1-9.5 3c-2.9 0-5.6-.7-8.3-2-.6-.4-1-.6-1.3-.6-1 0-2 .8-3 2.5h-.9zm-118.8 12.3l.4.1.1.4v5.3c0 .4-.1.6-.4.7a12.8 12.8 0 0 1-4.4.8 7 7 0 0 1-3.6-.8c-1-.6-1.7-1.4-2.2-2.5-.6-1-.8-2.4-.8-3.9 0-1.4.2-2.7.8-3.8s1.2-2 2.2-2.5a7.5 7.5 0 0 1 6-.4 5 5 0 0 1 2 1.3c.3.2.3.3.3.6v.3a.4.4 0 0 1-.4.2l-.4-.2a5.8 5.8 0 0 0-4-1.6c-1.7 0-3 .6-3.9 1.6-.9 1-1.3 2.6-1.3 4.5 0 2 .4 3.5 1.3 4.6 1 1 2.3 1.6 4 1.6.7 0 1.3 0 2-.2a8 8 0 0 0 1.7-.5v-4.6h-3.2l-.5-.1a.5.5 0 0 1-.1-.4l.1-.4.5-.1h3.8zm4.2 7.2a.7.7 0 0 1-.4-.2.6.6 0 0 1-.2-.4v-12.9c0-.2 0-.3.2-.4a.7.7 0 0 1 .4-.2h7.6l.5.1.1.4-.1.4a.6.6 0 0 1-.5.2h-7v5.3h6.6l.5.1.1.4-.1.4a.6.6 0 0 1-.5.2H214v5.5h7c.2 0 .4 0 .5.2l.1.4-.1.4a.6.6 0 0 1-.5.1h-7.6zm21-.7c.2 0 .2.2.2.3 0 .1 0 .3-.2.4a.6.6 0 0 1-.4.1c-.2 0-.4 0-.5-.3l-2.7-4.3c-.4-.6-.8-1-1.2-1.3-.4-.2-1-.3-1.7-.3h-2.7v5.6c0 .2 0 .3-.2.4a.6.6 0 0 1-.4.2.6.6 0 0 1-.5-.2.6.6 0 0 1-.2-.4v-13l.2-.4a.7.7 0 0 1 .5-.2h5c1.5 0 2.6.3 3.4 1 .8.7 1.2 1.7 1.2 3 0 1-.3 2-1 2.7-.7.6-1.7 1-2.9 1.1l.9.6c.3.2.5.5.8 1l2.5 4zm-4.9-6.5c2.3 0 3.5-1 3.5-3 0-1-.3-1.7-.9-2.1-.5-.5-1.4-.7-2.6-.7h-4.3v5.8h4.3zm20.2-7c.2 0 .3 0 .5.2l.1.4v13l-.1.5a.6.6 0 0 1-.5.2c-.2 0-.3 0-.4-.2l-.1-.4v-11.1l-4.8 9.1c-.1.3-.3.5-.6.5s-.5-.2-.7-.5l-4.8-9v11l-.1.4-.4.2c-.2 0-.4 0-.5-.2a.7.7 0 0 1-.1-.4v-13l.1-.5.5-.2c.3 0 .5.2.6.5l5.4 10.3 5.3-10.3c.2-.3.4-.5.6-.5zm15.7 13.5v.7l-.5.1a.6.6 0 0 1-.3-.1.6.6 0 0 1-.2-.3l-1.6-3.5h-7.7l-1.6 3.5c0 .3-.3.4-.5.4a.6.6 0 0 1-.4-.1.5.5 0 0 1-.2-.4v-.3l5.9-13c0-.4.3-.5.6-.5l.4.1c.2 0 .3.2.3.3l5.8 13.1zm-9.9-4.1h6.9l-3.4-7.8-3.5 7.8zm22.5-9.4c.2 0 .3 0 .4.2l.2.4v13c0 .2 0 .4-.2.5a.6.6 0 0 1-.4.2c-.2 0-.4-.1-.5-.3l-8.8-11.8v11.5c0 .1 0 .3-.2.4a.5.5 0 0 1-.4.2c-.2 0-.3 0-.4-.2l-.2-.4v-13c0-.2 0-.4.2-.5l.5-.2c.2 0 .4.1.5.3l8.7 11.8v-11.5c0-.1 0-.3.2-.4a.5.5 0 0 1 .4-.2zm12.7.3c0-.2.2-.3.4-.3a.5.5 0 0 1 .4.2l.1.4a.6.6 0 0 1-.1.4l-5 6.4v6.3c0 .1 0 .3-.2.4a.6.6 0 0 1-.4.2.6.6 0 0 1-.4-.2.6.6 0 0 1-.2-.4v-6.3l-5-6.4a.6.6 0 0 1-.1-.4l.1-.4a.5.5 0 0 1 .4-.2c.2 0 .3.1.4.3l4.8 6.1 4.8-6.1zm17.5 6.7l.4.1.1.4v5.3c0 .4-.1.6-.4.7a12.8 12.8 0 0 1-4.4.8 7 7 0 0 1-3.5-.8c-1-.6-1.8-1.4-2.3-2.5-.5-1-.8-2.4-.8-3.9 0-1.4.3-2.7.8-3.8s1.3-2 2.2-2.5a7.5 7.5 0 0 1 6-.4 5 5 0 0 1 2.1 1.3c.2.2.3.3.3.6 0 .1 0 .2-.2.3a.4.4 0 0 1-.3.2l-.4-.2a5.8 5.8 0 0 0-4-1.6c-1.7 0-3 .6-3.8 1.6-1 1-1.4 2.6-1.4 4.5 0 2 .5 3.5 1.4 4.6.9 1 2.2 1.6 4 1.6.6 0 1.3 0 1.9-.2a8 8 0 0 0 1.7-.5v-4.6h-3.2l-.4-.1a.5.5 0 0 1-.2-.4c0-.2 0-.3.2-.4l.4-.1h3.8zm16.1-7c.2 0 .4 0 .5.2l.2.4v13c0 .2 0 .4-.2.5a.6.6 0 0 1-.4.2c-.2 0-.4 0-.4-.2l-.2-.4v-11.1l-4.7 9.1c-.2.3-.4.5-.7.5s-.5-.2-.6-.5l-4.8-9v11c0 .2 0 .3-.2.4l-.4.2c-.2 0-.3 0-.4-.2a.7.7 0 0 1-.2-.4v-13c0-.2 0-.4.2-.5l.5-.2c.2 0 .4.2.6.5l5.3 10.3 5.3-10.3c.2-.3.4-.5.6-.5zm11.6 7c.8.2 1.5.6 1.9 1.2.5.6.7 1.3.7 2.2 0 1.2-.4 2.2-1.2 2.8-.8.7-2 1-3.5 1h-5a.7.7 0 0 1-.4-.2.6.6 0 0 1-.2-.4v-12.9c0-.2 0-.3.2-.4a.7.7 0 0 1 .5-.2h4.7c1.5 0 2.6.3 3.4 1 .8.6 1.2 1.5 1.2 2.7 0 .8-.2 1.4-.6 2-.4.5-1 1-1.7 1.2zm-6.5-.5h4c1.2 0 2-.2 2.6-.7.6-.5 1-1.1 1-2 0-1.8-1.2-2.6-3.5-2.6h-4v5.3zm4.4 6.6c1.1 0 2-.2 2.6-.6.6-.5.8-1.2.8-2 0-2-1.1-3-3.4-3h-4.4v5.6h4.4zm18.2-13.1c.2 0 .4 0 .5.2l.1.4v13l-.1.5-.5.2a.6.6 0 0 1-.4-.2.7.7 0 0 1-.2-.4v-6.1h-9v6c0 .2 0 .4-.2.5a.6.6 0 0 1-.4.2.6.6 0 0 1-.5-.2.6.6 0 0 1-.1-.4v-13l.1-.5a.6.6 0 0 1 .5-.2c.2 0 .3 0 .4.2l.2.4v5.9h9v-5.9c0-.1 0-.3.2-.4a.6.6 0 0 1 .4-.2z"/>
    <ellipse cx="119.4" cy="102" fill="#FFF" fill-rule="nonzero" rx="15.2" ry="15.2"/>
  </g>
</svg>
